<?xml version="1.0" encoding="UTF-8" standalone="no"?><!DOCTYPE svg PUBLIC "-//W3C//DTD SVG 1.1//EN" "http://www.w3.org/Graphics/SVG/1.1/DTD/svg11.dtd"><svg width="100%" height="100%" viewBox="0 0 6671 3750" version="1.1" xmlns="http://www.w3.org/2000/svg" xmlns:xlink="http://www.w3.org/1999/xlink" xml:space="preserve" xmlns:serif="http://www.serif.com/" style="fill-rule:evenodd;clip-rule:evenodd;stroke-linecap:round;stroke-linejoin:round;stroke-miterlimit:1.5;"><rect id="small" x="0.431" y="0" width="6666.67" height="3750" style="fill:none;"/><clipPath id="_clip1"><rect x="0.431" y="0" width="6666.67" height="3750"/></clipPath><g clip-path="url(#_clip1)"><g><path d="M0.431,3260.16l144.812,0l0,102.687l81.443,0l0,208.572l60.222,0l0,-311.259l73.348,0l0,50.307l137.866,0l0,-129.272l126.062,0l0,78.965l47.706,0l0,236.124l199.074,0l0,-84.959l101.467,0l0,-100.858l69.314,0l0,31.076l108.426,0l0,-241.06l201.095,0l0,241.06l191.038,0l0,154.741l67.364,0l0,-106.313l133.488,0l0,21.354l81.667,0l0,-21.354l75.379,0l0,-166.951l52.064,0l0,-64.682l169.116,0l0,64.682l18.255,-18.256l0,105.703l52.669,0l0,286.801l62.357,0l0,-234.421l41.521,-41.521l0,-98.306l267.482,0l0,71.362l69.832,0l48.796,-48.795l0,-64.392l56.277,-56.277l90.055,0l0,-260.97l43.298,0l0,-153.272l35.1,0l0,-109.505l73.111,0l0,109.505l39.098,0l0,153.272l50.821,0l0,477.595l45.657,0l0,-81.383l90.606,0l0,81.383l41.621,0l0,48.428l142.305,0l35.041,-35.042l38.613,0l35.042,35.042l68.645,-68.645l0,-61.166l62.495,0l0,236.124l42.873,0l0,-64.905l53.876,0l0,-110.053l68.816,0l0,-220.843l125.119,0l0,193.899l24.66,0l0,136.997l40.301,0l0,-57.534l64.599,0l0,16.126l126.797,0l0,-95.589l87.054,0l89.618,-89.618l0,253.894l73.721,0l0,-681.865l29.627,0l0,-127.207l225.09,0l0,127.207l46.498,0l0,578.136l62.916,0l0,35.042l156.594,0l68.645,-68.645l112.21,0l0,68.645l36.776,0l0,-48.428l197.928,0l0,169.171l43.474,0l0,-136.869l41.424,0l0,-32.302l24.032,0l0,-136.779l98.522,0l0,116.562l27.982,0l0,33.603l35.036,0l0,-44.462l284.796,0l0,148.191l52.721,0l0,52.056l36.013,36.013l0,24.692l25.849,25.849l0,-50.541l59.047,0l0,-88.069l37.626,37.626l0,14.43l72.549,0l0,60.705l52.818,0l0,-348.399l18.255,-18.256l0,-61.966l45.172,0l0,-92.536l102.813,0l0,195.325l32.915,32.914l0,292.918l41.086,-41.087l0,-54.622l68.698,0l44.331,-44.331l0,44.331l58.142,0" style="fill:none;stroke:#c73039;stroke-width:20.83px;"/><rect x="2373.19" y="3156.21" width="0.172" height="64.682" style="fill:none;stroke:#c73039;stroke-width:20.83px;"/><path d="M2944.74,2601.18l0,-151.269" style="fill:none;stroke:#c73039;stroke-width:20.83px;"/><path d="M4529.67,2649.59l0,-219.325" style="fill:none;stroke:#c73039;stroke-width:20.83px;"/><path d="M4629.57,2649.59l0,-75.898" style="fill:none;stroke:#c73039;stroke-width:20.83px;"/><path d="M5521.05,3204.77l0,-157.607" style="fill:none;stroke:#c73039;stroke-width:20.83px;"/><path d="M6393.84,3047.16l0,-61.59" style="fill:none;stroke:#c73039;stroke-width:20.83px;"/></g></g></svg>