<?xml version="1.0" encoding="UTF-8" standalone="no"?><!DOCTYPE svg PUBLIC "-//W3C//DTD SVG 1.1//EN" "http://www.w3.org/Graphics/SVG/1.1/DTD/svg11.dtd"><svg width="100%" height="100%" viewBox="0 0 675 575" version="1.1" xmlns="http://www.w3.org/2000/svg" xmlns:xlink="http://www.w3.org/1999/xlink" xml:space="preserve" xmlns:serif="http://www.serif.com/" style="fill-rule:evenodd;clip-rule:evenodd;stroke-linecap:round;stroke-linejoin:round;stroke-miterlimit:2;"><g id="speech-icon"><g><path d="M429.453,0.27c0,0 -3.163,22.609 -92.298,13.93c0,0 -217.219,-45.074 -295.594,90.27c-78.375,135.343 3.104,243.819 40.691,286.153c37.586,42.333 8.097,140.979 -15.896,181.388l215.521,0l0,-45.533c0,-37.299 47.888,-26.324 64.105,-28.313c16.217,-1.989 57.701,11.118 69.425,-16.39c11.724,-27.508 16.877,-39.526 -7.847,-49.184c-24.734,-9.663 -51.364,-29.394 -46.477,-41.968c4.887,-12.575 65.013,-38.33 68.37,-47.775c3.357,-9.445 -2.097,-30.767 -4.722,-36.441c-2.625,-5.675 31.579,-27.47 35.713,-33.683c4.133,-6.214 -48.217,-53.808 -52.884,-70.332c-4.667,-16.525 4.962,-70.272 -13.55,-90.425c0,0 35.831,-21.817 35.443,-111.697Z" style="fill:none;stroke:#000;stroke-width:16.67px;"/><path d="M537.362,444.761l67.343,92.775l40.428,-49.031l-107.771,-43.744Z" style="fill:none;stroke:#000;stroke-width:16.67px;"/><path d="M547.643,371.14l116.435,-20.575l0,64.698l-116.435,-44.123Z" style="fill:none;stroke:#000;stroke-width:16.67px;"/><path d="M534.406,315.309l114.846,-52.275l-43.392,-44.614l-71.454,96.889Z" style="fill:none;stroke:#000;stroke-width:16.67px;"/></g></g></svg>