<?xml version="1.0" encoding="UTF-8" standalone="no"?><!DOCTYPE svg PUBLIC "-//W3C//DTD SVG 1.1//EN" "http://www.w3.org/Graphics/SVG/1.1/DTD/svg11.dtd"><svg width="100%" height="100%" viewBox="0 0 559 563" version="1.1" xmlns="http://www.w3.org/2000/svg" xmlns:xlink="http://www.w3.org/1999/xlink" xml:space="preserve" xmlns:serif="http://www.serif.com/" style="fill-rule:evenodd;clip-rule:evenodd;stroke-linecap:round;stroke-linejoin:round;stroke-miterlimit:2;"><g id="Hammer-icon"><path d="M16.386,201.987c-5.549,-7.114 -4.28,-17.378 2.834,-22.927c15.285,-11.922 38.725,-30.205 38.725,-30.205c0,0 18.527,23.506 43.538,-0.059c25.011,-23.565 7.264,-39.566 7.264,-39.566l99.213,-77.386c52.477,-32.958 112.587,-31.902 182.372,12.262c-52.865,-1.109 -99.789,11.098 -136.131,47.021l28.689,36.782l-13.128,10.24c0,0 216.663,277.776 269.558,345.591c3.061,3.925 4.438,8.905 3.827,13.845c-0.61,4.94 -3.158,9.435 -7.083,12.497c-11.722,9.142 -28.018,21.853 -39.74,30.996c-3.925,3.062 -8.905,4.438 -13.845,3.828c-4.94,-0.611 -9.435,-3.159 -12.497,-7.084c-52.895,-67.814 -269.558,-345.59 -269.558,-345.59l-16.747,13.063c0,0 -13.334,-26.716 -41.596,-4.45c-28.262,22.265 -9.206,44.075 -9.206,44.075c0,0 -23.44,18.283 -38.725,30.205c-7.114,5.549 -17.378,4.28 -22.927,-2.833c-14.334,-18.378 -40.503,-51.928 -54.837,-70.305Z" style="fill:none;stroke:#000;stroke-width:12.5px;"/><path d="M200.424,192.232l69.338,-54.083l57.006,73.086l-69.338,54.082l-57.006,-73.085Z" style="fill:none;stroke:#000;stroke-width:12.5px;"/></g></svg>