<?xml version="1.0" encoding="UTF-8" standalone="no"?><!DOCTYPE svg PUBLIC "-//W3C//DTD SVG 1.1//EN" "http://www.w3.org/Graphics/SVG/1.1/DTD/svg11.dtd"><svg width="100%" height="100%" viewBox="0 0 559 605" version="1.1" xmlns="http://www.w3.org/2000/svg" xmlns:xlink="http://www.w3.org/1999/xlink" xml:space="preserve" xmlns:serif="http://www.serif.com/" style="fill-rule:evenodd;clip-rule:evenodd;stroke-linecap:round;stroke-linejoin:round;stroke-miterlimit:2;"><g id="lighbulb-icon"><g><path d="M205.554,443.053c-5.354,-27.483 -18.076,-52.994 -36.806,-73.807c-24.302,-26.821 -39.13,-62.634 -39.13,-101.942c0,-83.182 66.401,-150.715 148.188,-150.715c81.788,0 148.189,67.533 148.189,150.715c0,39.312 -14.831,75.128 -39.11,101.975c-18.716,20.792 -31.429,46.279 -36.783,73.736c-1.498,7.368 -2.011,11.752 -2.011,11.752l-140.569,0c0,0 -0.511,-4.366 -1.968,-11.714Z" style="fill:none;stroke:#000;stroke-width:16.67px;"/><path d="M207.522,454.767c0,0 -14.679,27.051 19.686,26.869l112.508,0c0,0 14.256,-0.857 13.869,12.299c-0.387,13.157 -12.345,13.518 -12.345,13.518l-114.032,0c0,0 -12.953,-1.068 -12.061,14.275c0.683,11.761 12.061,9.071 12.061,9.071l98.03,0c0,0 11.521,-1.596 11.352,13.531c-0.168,15.127 -11.352,12.187 -11.352,12.187l-84.229,0c0,0 11.515,11.453 15.216,18.17c3.701,6.717 10.309,18.574 17.518,20.071c7.209,1.498 20.233,2.579 25.074,-13.428" style="fill:none;stroke:#000;stroke-width:16.67px;"/><path d="M328.258,88.157l23.859,-79.824" style="fill:none;stroke:#000;stroke-width:16.67px;"/><path d="M228.816,88.157l-23.859,-79.824" style="fill:none;stroke:#000;stroke-width:16.67px;"/><path d="M397.617,119.514l54.103,-62.713" style="fill:none;stroke:#000;stroke-width:16.67px;"/><path d="M159.457,119.514l-54.103,-62.713" style="fill:none;stroke:#000;stroke-width:16.67px;"/><path d="M448.199,182.226l74.56,-34.79" style="fill:none;stroke:#000;stroke-width:16.67px;"/><path d="M108.875,182.226l-74.56,-34.79" style="fill:none;stroke:#000;stroke-width:16.67px;"/><path d="M465.294,267.026l82.032,0.309" style="fill:none;stroke:#000;stroke-width:16.67px;"/><path d="M91.78,267.026l-82.032,0.309" style="fill:none;stroke:#000;stroke-width:16.67px;"/><path d="M440.727,363.786l72.019,39.945" style="fill:none;stroke:#000;stroke-width:16.67px;"/><path d="M116.347,363.786l-72.019,39.945" style="fill:none;stroke:#000;stroke-width:16.67px;"/></g><path d="M311.427,144.655c2.418,0.38 59.911,13.064 82.096,75.051" style="fill:none;stroke:#000;stroke-width:16.67px;"/></g></svg>