<?xml version="1.0" encoding="UTF-8" standalone="no"?><!DOCTYPE svg PUBLIC "-//W3C//DTD SVG 1.1//EN" "http://www.w3.org/Graphics/SVG/1.1/DTD/svg11.dtd"><svg width="100%" height="100%" viewBox="0 0 434 250" version="1.1" xmlns="http://www.w3.org/2000/svg" xmlns:xlink="http://www.w3.org/1999/xlink" xml:space="preserve" xmlns:serif="http://www.serif.com/" style="fill-rule:evenodd;clip-rule:evenodd;stroke-linejoin:round;stroke-miterlimit:2;"><g id="final-logo-gray"><path d="M54.025,38.727l40.03,-37.159l90.247,84.219l0,103.817l-43.007,0l0,-6.802c0.974,-15.162 4.609,-13.825 4.609,-13.825c16.084,-0.757 24.579,3.819 24.579,3.819l2.304,-0.768l0,-3.073l-2.304,-1.536c-31.515,-21.448 -50.694,-14.572 -50.694,-14.572c-14.261,11.481 -20.739,2.304 -20.739,2.304l-9.985,0c-4.762,11.162 0,21.507 0,21.507l11.521,0c0,0 1.798,-5.576 9.986,-6.145c13.223,-0.919 15.361,12.289 15.361,12.289l0,6.802l-58.649,0l0,-39.459l19.665,-19.665l0,-19.665l-19.665,-19.665l0,39.33l-19.665,0l0,-39.33l-19.665,19.665l0,19.665l19.665,19.665l0,39.459l-44.291,0l0,-103.817l24.58,-22.816l0,-52.806l26.117,0l0,28.562Z" style="fill:#313131;"/><clipPath id="_clip1"><path d="M54.025,38.727l40.03,-37.159l90.247,84.219l0,103.817l-43.007,0l0,-6.802c0.974,-15.162 4.609,-13.825 4.609,-13.825c16.084,-0.757 24.579,3.819 24.579,3.819l2.304,-0.768l0,-3.073l-2.304,-1.536c-31.515,-21.448 -50.694,-14.572 -50.694,-14.572c-14.261,11.481 -20.739,2.304 -20.739,2.304l-9.985,0c-4.762,11.162 0,21.507 0,21.507l11.521,0c0,0 1.798,-5.576 9.986,-6.145c13.223,-0.919 15.361,12.289 15.361,12.289l0,6.802l-58.649,0l0,-39.459l19.665,-19.665l0,-19.665l-19.665,-19.665l0,39.33l-19.665,0l0,-39.33l-19.665,19.665l0,19.665l19.665,19.665l0,39.459l-44.291,0l0,-103.817l24.58,-22.816l0,-52.806l26.117,0l0,28.562Z"/></clipPath><g clip-path="url(#_clip1)"><rect x="115.37" y="91.15" width="13.144" height="22.651" style="fill:#c73039;"/><rect x="115.37" y="116.481" width="13.144" height="22.651" style="fill:#c73039;"/><rect x="131.222" y="91.15" width="13.144" height="22.651" style="fill:#c73039;"/><rect x="131.222" y="116.481" width="13.144" height="22.651" style="fill:#c73039;"/></g><g><rect x="199.352" y="1.568" width="27.989" height="134.492" style="fill:#313131;fill-rule:nonzero;"/><path d="M261.055,136.06l0,-134.492l24.627,0l62.339,91.873l0,-91.873l22.446,0l0,134.492l-25.082,0l-61.884,-91.872l0,91.872l-22.446,0Z" style="fill:#313131;fill-rule:nonzero;"/><rect x="404.09" y="1.568" width="27.989" height="134.492" style="fill:#313131;fill-rule:nonzero;"/></g><text x="-0.593px" y="235.696px" style="font-family:'DINAlternate-Bold', 'DIN Alternate', sans-serif;font-weight:700;font-size:52.149px;fill:#313131;">Home Impr<tspan x="246.579px 272.653px 295.494px 321.568px " y="235.696px 235.696px 235.696px 235.696px ">ovem</tspan>ent</text><text x="198.48px" y="189.216px" style="font-family:'DINAlternate-Bold', 'DIN Alternate', sans-serif;font-weight:700;font-size:66.115px;fill:#c73039;">Services</text></g></svg>