<?xml version="1.0" encoding="UTF-8" standalone="no"?><!DOCTYPE svg PUBLIC "-//W3C//DTD SVG 1.1//EN" "http://www.w3.org/Graphics/SVG/1.1/DTD/svg11.dtd"><svg width="100%" height="100%" viewBox="0 0 438 250" version="1.1" xmlns="http://www.w3.org/2000/svg" xmlns:xlink="http://www.w3.org/1999/xlink" xml:space="preserve" xmlns:serif="http://www.serif.com/" style="fill-rule:evenodd;clip-rule:evenodd;stroke-linejoin:round;stroke-miterlimit:2;"><g id="final-logo"><path d="M54.773,38.941l40.03,-37.159l90.247,84.22l0,103.816l-43.007,0l0,-6.801c0.974,-15.163 4.609,-13.826 4.609,-13.826c16.084,-0.757 24.579,3.819 24.579,3.819l2.304,-0.768l0,-3.073l-2.304,-1.536c-31.515,-21.448 -50.694,-14.572 -50.694,-14.572c-14.26,11.481 -20.739,2.304 -20.739,2.304l-9.985,0c-4.762,11.163 0,21.507 0,21.507l11.521,0c0,0 1.798,-5.576 9.986,-6.145c13.223,-0.919 15.362,12.29 15.362,12.29l0,6.801l-58.65,0l0,-39.458l19.665,-19.665l0,-19.665l-19.665,-19.665l0,39.33l-19.665,0l0,-39.33l-19.665,19.665l0,19.665l19.665,19.665l0,39.458l-44.291,0l0,-103.816l24.58,-22.817l0,-52.806l26.117,0l0,28.562Z"/><clipPath id="_clip1"><path d="M54.773,38.941l40.03,-37.159l90.247,84.22l0,103.816l-43.007,0l0,-6.801c0.974,-15.163 4.609,-13.826 4.609,-13.826c16.084,-0.757 24.579,3.819 24.579,3.819l2.304,-0.768l0,-3.073l-2.304,-1.536c-31.515,-21.448 -50.694,-14.572 -50.694,-14.572c-14.26,11.481 -20.739,2.304 -20.739,2.304l-9.985,0c-4.762,11.163 0,21.507 0,21.507l11.521,0c0,0 1.798,-5.576 9.986,-6.145c13.223,-0.919 15.362,12.29 15.362,12.29l0,6.801l-58.65,0l0,-39.458l19.665,-19.665l0,-19.665l-19.665,-19.665l0,39.33l-19.665,0l0,-39.33l-19.665,19.665l0,19.665l19.665,19.665l0,39.458l-44.291,0l0,-103.816l24.58,-22.817l0,-52.806l26.117,0l0,28.562Z"/></clipPath><g clip-path="url(#_clip1)"><rect x="116.118" y="91.365" width="13.144" height="22.651" style="fill:#c73039;"/><rect x="116.118" y="116.695" width="13.144" height="22.651" style="fill:#c73039;"/><rect x="131.97" y="91.365" width="13.144" height="22.651" style="fill:#c73039;"/><rect x="131.97" y="116.695" width="13.144" height="22.651" style="fill:#c73039;"/></g><g><rect x="200.1" y="1.782" width="27.989" height="134.492" style="fill-rule:nonzero;"/><path d="M261.803,136.275l0,-134.493l24.627,0l62.339,91.873l0,-91.873l22.446,0l0,134.493l-25.081,0l-61.885,-91.873l0,91.873l-22.446,0Z" style="fill-rule:nonzero;"/><rect x="404.838" y="1.782" width="27.989" height="134.492" style="fill-rule:nonzero;"/></g><text x="0.155px" y="235.91px" style="font-family:'DINAlternate-Bold', 'DIN Alternate', sans-serif;font-weight:700;font-size:52.149px;">Home Impr<tspan x="247.327px 273.401px 296.242px 322.316px " y="235.91px 235.91px 235.91px 235.91px ">ovem</tspan>ent</text><text x="199.229px" y="189.43px" style="font-family:'DINAlternate-Bold', 'DIN Alternate', sans-serif;font-weight:700;font-size:66.115px;fill:#c73039;">Services</text></g></svg>