<?xml version="1.0" encoding="UTF-8" standalone="no"?><!DOCTYPE svg PUBLIC "-//W3C//DTD SVG 1.1//EN" "http://www.w3.org/Graphics/SVG/1.1/DTD/svg11.dtd"><svg width="100%" height="100%" viewBox="0 0 6671 3750" version="1.1" xmlns="http://www.w3.org/2000/svg" xmlns:xlink="http://www.w3.org/1999/xlink" xml:space="preserve" xmlns:serif="http://www.serif.com/" style="fill-rule:evenodd;clip-rule:evenodd;stroke-linecap:round;stroke-linejoin:round;stroke-miterlimit:1.5;"><rect id="small" x="0.431" y="0" width="6666.67" height="3750" style="fill:none;"/><clipPath id="_clip1"><rect x="0.431" y="0" width="6666.67" height="3750"/></clipPath><g clip-path="url(#_clip1)"><g><g><path d="M0.431,3260.16l144.812,0l0,102.687l81.443,0l0,208.572l60.222,0l0,-311.259l73.348,0l0,50.307l137.866,0l0,-129.272l126.062,0l0,78.965l47.706,0l0,236.124l199.074,0l0,-84.959l101.467,0l0,-100.858l69.314,0l0,31.076l108.426,0l0,-241.06l144.678,0l0,241.06l65.86,0l0,-941.37l43.826,0l0,-57.854l107.546,0l65.213,57.854l26.941,0l0,989.798l92.242,0l0,-185.207l60.071,0l0,-57.855l333.685,0l0,57.855l49.404,0l0,185.207l156.547,0l0,-166.951l267.482,0l0,71.362l69.832,0l48.796,-48.795l0,-64.392l56.277,-56.277l0,185.549l90.055,0l0,-285.362l52.978,-88.552l96.847,88.552l91.603,0l0,316.438l45.657,0l0,-81.383l90.606,0l0,81.383l41.621,0l0,48.428l83.971,0l0,-27.124l34.071,-32.501l7.596,-614.026l41.397,-81.969l42.183,81.969l7.595,614.026l34.071,32.501l0,27.124l68.762,0l0,-129.811l62.495,0l0,236.124l42.873,0l0,-64.905l53.876,0l0,-110.053l68.816,0l0,-220.843l125.119,0l0,193.899l24.66,0l0,136.997l40.301,0l0,-57.534l64.599,0l0,16.126l126.797,0l0,-95.589l87.054,0l89.618,-89.618l0,253.894l73.721,0l0,-522.105l254.717,-127.206l0,127.206l46.498,0l0,418.376l62.916,0l0,35.042l106.298,0l0,-221.041l137.502,0l29.166,-44.012l42.725,0l28.795,-31.603l30.806,31.603l42.784,0l29.167,44.012l136.63,0l0,221.041l31.754,0l0,-111.47l41.424,0l0,-32.301l24.032,0l0,-41.436l98.522,0l0,116.562l27.982,0l0,33.603l35.036,0l0,-44.462l284.796,0l0,148.191l52.721,0l0,52.056l36.013,36.013l0,24.692l25.849,25.849l0,-50.541l59.047,0l0,-88.069l37.626,37.626l0,14.43l72.549,0l0,60.705l52.818,0l0,-348.399l18.255,-18.256l0,-61.966l45.172,0l0,-92.536l102.813,0l0,195.325l32.915,32.914l0,292.918l41.086,-41.087l0,-54.622l68.698,0l44.331,-44.331l0,44.331l58.142,0" style="fill:none;stroke:#c73039;stroke-width:20.83px;"/><path d="M1439.62,2342.32l0,-133.747" style="fill:none;stroke:#c73039;stroke-width:20.83px;"/><path d="M1480.49,2342.32l0,-50.112" style="fill:none;stroke:#c73039;stroke-width:20.83px;"/></g><path d="M5011.12,3168.93l0,-53.12" style="fill:none;stroke:#c73039;stroke-width:20.83px;"/><path d="M5267.58,3168.93l0,-53.12" style="fill:none;stroke:#c73039;stroke-width:20.83px;"/><rect x="2373.19" y="3156.21" width="0.172" height="64.682" style="fill:none;stroke:#c73039;stroke-width:20.83px;"/><path d="M5521.05,3204.77l0,-157.607" style="fill:none;stroke:#c73039;stroke-width:20.83px;"/><path d="M6393.84,3047.16l0,-61.59" style="fill:none;stroke:#c73039;stroke-width:20.83px;"/></g></g></svg>